<?xml version="1.0" encoding="UTF-8" standalone="no"?>
<svg
   id="Capa_1"
   viewBox="0 0 1243.685 513.02002"
   version="1.1"
   width="1243.6851"
   height="513.02002"
   xmlns:xlink="http://www.w3.org/1999/xlink"
   xmlns="http://www.w3.org/2000/svg"
   xmlns:svg="http://www.w3.org/2000/svg">
  <defs
     id="defs1">
    <linearGradient
       id="linearGradient15">
      <stop
         style="stop-color:#005d28;stop-opacity:1;"
         offset="0"
         id="stop15" />
      <stop
         style="stop-color:#009945;stop-opacity:1"
         offset="1"
         id="stop16" />
    </linearGradient>
    <style
       id="style1">.cls-1{fill:#009945;}.cls-2{fill:#1f231e;}</style>
    <radialGradient
       xlink:href="#linearGradient15"
       id="radialGradient16"
       cx="364.82578"
       cy="257.41528"
       fx="364.82578"
       fy="257.41528"
       r="256.52"
       gradientTransform="matrix(1.0530451,0,0,0.99996102,-18.711883,0.00999961)"
       gradientUnits="userSpaceOnUse" />
  </defs>
  <path
     class="cls-1"
     d="m 498.38199,107.6362 c -8.2525,3.92149 -18.08103,2.20894 -24.54032,-4.25035 l -0.2606,-0.2606 c -25.6634,-25.663405 -62.01161,-34.139277 -94.72998,-25.421414 -8.14081,2.17171 -16.70355,2.17171 -24.84435,0 -32.70595,-8.693044 -69.03555,-0.223377 -94.68655,25.427614 l -0.2606,0.26061 c -6.45928,6.45928 -16.28782,8.17183 -24.54032,4.25034 -8.43243,-4.00215 -21.45029,-16.076852 -27.23324,-10.293899 -5.78296,5.782949 6.29796,18.807009 10.2939,27.233239 3.9215,8.2525 2.20894,18.08104 -4.25034,24.54032 l -0.26061,0.2606 c -25.65099,25.651 -34.12686,61.97439 -25.42761,94.68655 2.1593,8.1408 2.1593,16.70354 0,24.84435 -8.71787,32.71837 -0.2482,69.06037 25.42141,94.72998 l 0.26061,0.2606 c 6.45928,6.45929 8.17182,16.28782 4.25034,24.54032 -4.00215,8.43245 -16.07686,21.45029 -10.2939,27.23324 5.78295,5.78296 18.80701,-6.29795 27.23324,-10.2939 8.2525,-3.92148 18.08103,-2.20894 24.54032,4.25034 l 0.2606,0.26061 c 25.6634,25.6634 62.01161,34.13928 94.72998,25.42141 8.14081,-2.1717 16.70355,-2.1717 24.84435,0 32.70595,8.69305 69.03555,0.22338 94.68655,-25.42761 l 0.2606,-0.26061 c 6.45928,-6.45928 16.28782,-8.17184 24.54032,-4.25034 8.43243,4.00215 21.45029,16.07686 27.23324,10.2939 5.78296,-5.78295 -6.29796,-18.80701 -10.2939,-27.23324 -3.9215,-8.2525 -2.20894,-18.08104 4.25034,-24.54032 l 0.26061,-0.2606 c 25.65099,-25.651 34.12686,-61.97439 25.42761,-94.68655 -2.1593,-8.1408 -2.1593,-16.70354 0,-24.84435 8.71787,-32.71837 0.2482,-69.06037 -25.42141,-94.72998 l -0.26061,-0.2606 c -6.45928,-6.45929 -8.17182,-16.28782 -4.25034,-24.54032 4.00215,-8.43244 16.07686,-21.45029 10.2939,-27.233244 -5.78295,-5.782953 -18.80701,6.297954 -27.23324,10.293904 z m 4.87704,13.60111 c 2.76738,2.76738 2.76738,7.2473 0,10.01468 v 0 c -25.97365,25.97365 -20.19069,62.29704 5.78296,88.27069 l 16.57324,16.57325 c 5.40446,5.40446 7.96707,11.13156 8.71787,16.72216 0.0124,0.13651 0.0311,0.26681 0.0434,0.40332 0.0124,0.11169 0.0248,0.21097 0.0372,0.32266 0.74458,7.59478 -1.24719,15.79143 -8.81715,23.36139 l -16.57324,16.57324 c -25.97365,25.97365 -31.75661,62.29704 -5.78296,88.27069 v 0 c 2.76738,2.76738 2.76738,7.24731 0,10.01469 l -1.54501,1.54501 c -2.76738,2.76738 -7.24731,2.76738 -10.01469,0 v 0 c -25.97361,-25.97365 -62.297,-20.19069 -88.27065,5.78296 l -16.57324,16.57324 c -7.57616,7.57617 -15.76661,9.56173 -23.36139,8.81715 -0.10549,-0.006 -0.21097,-0.0248 -0.32266,-0.0372 -0.13651,-0.0124 -0.26681,-0.0311 -0.40332,-0.0434 -5.5968,-0.757 -11.3177,-3.31341 -16.72216,-8.71787 L 329.454,399.11066 c -25.97364,-25.97365 -62.29704,-31.75659 -88.27069,-5.78295 v 0 c -2.76737,2.76738 -7.2473,2.76738 -10.01468,0 l -1.54502,-1.54502 c -2.76737,-2.76738 -2.76737,-7.2473 0,-10.01468 v 0 c 25.97365,-25.97365 20.1907,-62.29704 -5.78295,-88.27069 l -16.57324,-16.57325 c -5.40446,-5.40446 -7.96707,-11.13156 -8.71786,-16.72216 -0.0186,-0.13031 -0.0311,-0.26681 -0.0497,-0.39711 -0.0124,-0.11169 -0.0248,-0.22338 -0.0372,-0.32266 -0.74458,-7.59478 1.24719,-15.79144 8.81715,-23.36139 l 16.57324,-16.57325 c 25.97365,-25.97365 31.75661,-62.29704 5.78296,-88.27069 v 0 c -2.76738,-2.76738 -2.76738,-7.24731 0,-10.01469 l 1.54501,-1.54501 c 2.76738,-2.76738 7.24731,-2.76738 10.01469,0 v 0 c 25.97365,25.97365 62.29704,20.19069 88.27069,-5.78295 l 16.57325,-16.573249 c 7.57616,-7.576165 15.76661,-9.561728 23.36139,-8.817142 0.11169,0.01241 0.21096,0.02482 0.32265,0.03723 0.13651,0.01241 0.26681,0.03102 0.40331,0.04344 5.59682,0.756996 11.31772,3.313408 16.72217,8.717863 l 16.57325,16.573248 c 25.97364,25.97365 62.29704,31.7566 88.27069,5.78295 v 0 c 2.76738,-2.76738 7.2473,-2.76738 10.01469,0 l 1.54501,1.54502 z"
     id="path14"
     style="fill:#000000;stroke-width:0.877503;fill-opacity:0.18209876" />
  <path
     class="cls-1"
     d="m 592.72753,242.86 c -9.81,-3.49 -16.35,-12.79 -16.35,-23.2 v -0.42 c 0,-41.36 -22.46,-77.48 -55.85,-96.82 -8.31,-4.81 -15.21,-11.71 -20.02,-20.02 -19.35,-33.36 -55.45,-55.81 -96.79,-55.81 h -0.42 c -10.41,0 -19.71,-6.54 -23.2,-16.35 -3.57,-10.02 -4.33,-30.24 -13.65,-30.24 -9.32,0 -10.08,20.23 -13.65,30.24 -3.49,9.81 -12.79,16.35 -23.2,16.35 h -0.42 c -41.34,0 -77.44,22.44 -96.79,55.81 -4.82,8.3 -11.72,15.2 -20.02,20.02 -33.39,19.34 -55.85,55.45 -55.85,96.82 v 0.42 c 0,10.41 -6.54,19.71 -16.35,23.2 -10.02,3.57 -30.24,4.33 -30.24,13.65 0,9.32 20.23,10.08 30.24,13.65 9.81,3.49 16.35,12.79 16.35,23.2 v 0.42 c 0,41.36 22.46,77.48 55.85,96.82 8.31,4.81 15.21,11.71 20.02,20.02 19.35,33.36 55.45,55.81 96.79,55.81 h 0.42 c 10.41,0 19.71,6.54 23.2,16.35 3.57,10.02 4.33,30.24 13.65,30.24 9.32,0 10.08,-20.23 13.65,-30.24 3.49,-9.81 12.79,-16.35 23.2,-16.35 h 0.42 c 41.34,0 77.44,-22.44 96.79,-55.81 4.82,-8.3 11.72,-15.2 20.02,-20.02 33.39,-19.34 55.85,-55.45 55.85,-96.82 v -0.42 c 0,-10.41 6.54,-19.71 16.35,-23.2 10.02,-3.57 30.24,-4.33 30.24,-13.65 0,-9.32 -20.23,-10.08 -30.24,-13.65 z m -7.03,14.89 c 0,4.46 -3.61,8.07 -8.07,8.07 v 0 c -41.86,0 -66.47,33.93 -66.47,75.79 v 26.71 c 0,8.71 -2.55,15.39 -6.45,20.5 -0.1,0.12 -0.19,0.24 -0.29,0.36 -0.08,0.1 -0.15,0.19 -0.23,0.29 -5.52,6.72 -13.73,11.72 -25.93,11.72 h -26.71 c -41.86,0 -75.79,24.61 -75.79,66.47 v 0 c 0,4.46 -3.61,8.07 -8.07,8.07 h -2.49 c -4.46,0 -8.07,-3.61 -8.07,-8.07 v 0 c 0,-41.86 -33.93,-66.47 -75.79,-66.47 h -26.71 c -12.21,0 -20.41,-5 -25.93,-11.72 -0.08,-0.09 -0.15,-0.19 -0.23,-0.29 -0.1,-0.12 -0.19,-0.24 -0.29,-0.36 -3.9,-5.12 -6.45,-11.79 -6.45,-20.5 v -26.71 c 0,-41.86 -24.61,-75.79 -66.47,-75.79 v 0 c -4.46,0 -8.07,-3.61 -8.07,-8.07 v -2.49 c 0,-4.46 3.61,-8.07 8.07,-8.07 v 0 c 41.86,0 66.47,-33.93 66.47,-75.79 v -26.71 c 0,-8.71 2.55,-15.39 6.45,-20.5 0.09,-0.12 0.19,-0.24 0.28,-0.36 0.08,-0.1 0.16,-0.2 0.23,-0.29 5.52,-6.72 13.73,-11.72 25.93,-11.72 h 26.71 c 41.86,0 75.79,-24.61 75.79,-66.47 v 0 c 0,-4.46 3.61,-8.07 8.07,-8.07 h 2.49 c 4.46,0 8.07,3.61 8.07,8.07 v 0 c 0,41.86 33.93,66.47 75.79,66.47 h 26.71 c 12.21,0 20.41,5 25.93,11.72 0.08,0.1 0.15,0.19 0.23,0.29 0.1,0.12 0.19,0.24 0.29,0.36 3.9,5.12 6.45,11.79 6.45,20.5 v 26.71 c 0,41.86 24.61,75.79 66.47,75.79 v 0 c 4.46,0 8.07,3.61 8.07,8.07 v 2.49 z"
     id="path1" />
  <g
     id="g3"
     transform="translate(-97.94247,-493.49)">
    <path
       class="cls-2"
       d="M 915.85,623.45 C 904.42,618 890.88,615.27 875.23,615.27 H 767.35 v 197.82 h 44.84 v -67 h 63.04 c 15.65,0 29.19,-2.77 40.62,-8.31 11.43,-5.54 20.18,-13.19 26.24,-22.95 6.07,-9.76 9.1,-21.14 9.1,-34.16 0,-13.02 -3.03,-24.44 -9.1,-34.29 -6.07,-9.85 -14.82,-17.5 -26.24,-22.95 z m -18.6,78.07 c -5.89,5.1 -14.02,7.65 -24.4,7.65 H 812.18 V 652.2 h 60.67 c 10.37,0 18.5,2.51 24.4,7.52 5.89,5.01 8.84,12 8.84,20.97 0,8.97 -2.95,15.74 -8.84,20.84 z"
       id="path2" />
    <path
       class="cls-2"
       d="m 1107.87,663.02 -3.8,33.21 c -7.55,-11.79 -16.96,-20.93 -28.25,-27.41 -11.34,-6.5 -24.05,-9.76 -38.11,-9.76 -14.06,0 -27.52,3.3 -38.77,9.89 -11.25,6.59 -20,15.83 -26.24,27.7 -6.24,11.87 -9.36,25.72 -9.36,41.54 0,15.82 3.12,29.41 9.36,41.28 6.24,11.87 14.99,21.1 26.24,27.7 11.25,6.59 24.18,9.89 38.77,9.89 14.59,0 26.77,-3.26 38.11,-9.76 11.33,-6.5 20.73,-15.68 28.2,-27.53 l 3.85,33.33 h 45.63 l -8.7,-74.91 8.7,-75.17 z m -34.42,114.08 c -7.3,3.78 -15.08,5.67 -23.34,5.67 -8.26,0 -15.56,-1.89 -21.89,-5.67 -6.33,-3.78 -11.3,-9.01 -14.9,-15.69 -3.61,-6.68 -5.41,-14.42 -5.41,-23.21 0,-8.79 1.8,-16.57 5.41,-23.34 3.6,-6.77 8.57,-12.04 14.9,-15.83 6.33,-3.78 13.62,-5.67 21.89,-5.67 8.27,0 16.04,1.89 23.34,5.67 7.29,3.78 13.76,9.06 19.39,15.83 5.63,6.77 10.02,14.55 13.19,23.34 -3.17,8.79 -7.56,16.53 -13.19,23.21 -5.63,6.69 -12.09,11.92 -19.39,15.69 z"
       id="path3" />
    <rect
       class="cls-2"
       x="1183.04"
       y="610"
       width="44.049999"
       height="203.10001"
       id="rect3" />
  </g>
  <g
     id="g13"
     transform="translate(-97.94247,-493.49)">
    <path
       class="cls-2"
       d="m 828.31,878.72 c -0.52,4.94 -2.23,9.29 -5.14,13.05 -2.91,3.77 -6.71,6.69 -11.42,8.77 -4.71,2.08 -10.06,3.12 -16.09,3.12 -6.65,0 -12.48,-1.27 -17.49,-3.82 -5.01,-2.54 -8.92,-6.09 -11.73,-10.64 -2.81,-4.54 -4.21,-9.86 -4.21,-15.93 0,-6.07 1.4,-11.39 4.21,-15.93 2.8,-4.54 6.71,-8.09 11.73,-10.64 5.01,-2.54 10.84,-3.82 17.49,-3.82 6.03,0 11.39,1.04 16.09,3.12 4.7,2.08 8.51,4.99 11.42,8.73 2.91,3.74 4.62,8.1 5.14,13.09 h -13.32 c -0.52,-2.75 -1.64,-5.13 -3.35,-7.13 -1.71,-2 -3.92,-3.53 -6.62,-4.6 -2.7,-1.06 -5.84,-1.6 -9.43,-1.6 -4.1,0 -7.65,0.75 -10.64,2.26 -2.99,1.51 -5.29,3.67 -6.9,6.51 -1.61,2.83 -2.42,6.17 -2.42,10.01 0,3.84 0.8,7.18 2.42,10.01 1.61,2.83 3.91,5 6.9,6.51 2.99,1.51 6.53,2.26 10.64,2.26 3.58,0 6.73,-0.52 9.43,-1.56 2.7,-1.04 4.91,-2.56 6.62,-4.56 1.71,-2 2.83,-4.4 3.35,-7.21 z"
       id="path4" />
    <path
       class="cls-2"
       d="m 861.58,903.65 c -5.51,0 -10.34,-0.97 -14.49,-2.92 -4.16,-1.95 -7.4,-4.67 -9.74,-8.18 -2.34,-3.51 -3.51,-7.57 -3.51,-12.19 0,-4.62 1.17,-8.77 3.51,-12.27 2.34,-3.51 5.58,-6.23 9.74,-8.18 4.16,-1.95 8.99,-2.92 14.49,-2.92 5.5,0 10.34,0.97 14.49,2.92 4.16,1.95 7.39,4.67 9.7,8.18 2.31,3.51 3.47,7.6 3.47,12.27 0,4.67 -1.16,8.69 -3.47,12.19 -2.31,3.51 -5.54,6.23 -9.7,8.18 -4.16,1.95 -8.99,2.92 -14.49,2.92 z m 0,-9.9 c 3.01,0 5.6,-0.55 7.75,-1.64 2.16,-1.09 3.82,-2.64 4.99,-4.64 1.17,-2 1.75,-4.38 1.75,-7.13 0,-2.75 -0.58,-5.21 -1.75,-7.21 -1.17,-2 -2.83,-3.54 -4.99,-4.64 -2.16,-1.09 -4.74,-1.64 -7.75,-1.64 -3.01,0 -5.53,0.55 -7.71,1.64 -2.18,1.09 -3.86,2.64 -5.03,4.64 -1.17,2 -1.75,4.4 -1.75,7.21 0,2.81 0.58,5.13 1.75,7.13 1.17,2 2.84,3.54 5.03,4.64 2.19,1.1 4.75,1.64 7.71,1.64 z"
       id="path5" />
    <path
       class="cls-2"
       d="m 897.27,842.49 h 13.01 v 60 h -13.01 z"
       id="path6" />
    <path
       class="cls-2"
       d="m 920.57,842.49 h 13.01 v 60 h -13.01 z"
       id="path7" />
    <path
       class="cls-2"
       d="m 968.87,903.65 c -5.25,0 -9.93,-0.97 -14.06,-2.92 -4.13,-1.95 -7.38,-4.69 -9.74,-8.22 -2.36,-3.53 -3.54,-7.64 -3.54,-12.31 0,-4.67 1.13,-8.67 3.39,-12.16 2.26,-3.48 5.36,-6.19 9.31,-8.14 3.95,-1.95 8.44,-2.92 13.48,-2.92 5.04,0 9.56,1.13 13.25,3.39 3.69,2.26 6.53,5.44 8.53,9.54 2,4.1 3,8.93 3,14.49 h -40.52 v -8.65 h 33.5 l -5.14,3.12 c -0.16,-2.6 -0.77,-4.8 -1.83,-6.62 -1.07,-1.82 -2.49,-3.22 -4.29,-4.21 -1.79,-0.99 -3.93,-1.48 -6.43,-1.48 -2.65,0 -4.95,0.53 -6.9,1.6 -1.95,1.07 -3.46,2.54 -4.52,4.44 -1.07,1.9 -1.6,4.12 -1.6,6.66 0,3.07 0.69,5.69 2.06,7.87 1.38,2.18 3.35,3.84 5.92,4.99 2.57,1.14 5.7,1.71 9.39,1.71 3.32,0 6.69,-0.48 10.09,-1.44 3.4,-0.96 6.43,-2.32 9.08,-4.09 v 8.73 c -2.91,2.08 -6.3,3.7 -10.17,4.87 -3.87,1.17 -7.96,1.75 -12.27,1.75 z"
       id="path8" />
    <path
       class="cls-2"
       d="m 1051.47,884.41 c -0.47,3.79 -1.91,7.14 -4.32,10.05 -2.42,2.91 -5.53,5.17 -9.35,6.78 -3.82,1.61 -8.06,2.42 -12.74,2.42 -5.3,0 -9.96,-0.97 -13.99,-2.92 -4.03,-1.95 -7.17,-4.69 -9.43,-8.22 -2.26,-3.53 -3.39,-7.58 -3.39,-12.16 0,-4.58 1.13,-8.69 3.39,-12.19 2.26,-3.51 5.4,-6.25 9.43,-8.22 4.03,-1.97 8.69,-2.96 13.99,-2.96 4.67,0 8.92,0.81 12.74,2.42 3.82,1.61 6.93,3.87 9.35,6.78 2.42,2.91 3.86,6.29 4.32,10.13 h -13.01 c -0.68,-3.01 -2.22,-5.34 -4.64,-6.97 -2.42,-1.64 -5.34,-2.45 -8.77,-2.45 -2.75,0 -5.16,0.53 -7.21,1.6 -2.05,1.07 -3.62,2.6 -4.71,4.6 -1.09,2 -1.64,4.43 -1.64,7.29 0,2.86 0.54,5.21 1.64,7.21 1.09,2 2.66,3.53 4.71,4.6 2.05,1.07 4.45,1.6 7.21,1.6 3.48,0 6.43,-0.86 8.84,-2.57 2.42,-1.71 3.93,-3.97 4.56,-6.78 h 13.01 z"
       id="path9" />
    <path
       class="cls-2"
       d="m 1053.88,867.97 v -5.77 l 9.27,-3.04 5.53,-12.7 h 7.48 v 11.69 h 19.64 v 9.82 h -19.64 v 16.13 c 0,3.43 0.73,5.83 2.18,7.21 1.45,1.38 3.92,2.07 7.4,2.07 2.23,0 4.22,-0.21 5.96,-0.62 1.74,-0.42 3.36,-1.01 4.87,-1.79 v 10.13 c -1.51,0.62 -3.51,1.21 -6,1.75 -2.49,0.55 -5.06,0.82 -7.71,0.82 -4.62,0 -8.38,-0.74 -11.26,-2.22 -2.88,-1.48 -5.01,-3.54 -6.39,-6.19 -1.38,-2.65 -2.06,-5.74 -2.06,-9.27 v -18 h -9.27 z"
       id="path10" />
    <path
       class="cls-2"
       d="m 1110.45,853.09 c -2.34,0 -4.25,-0.61 -5.73,-1.83 -1.48,-1.22 -2.22,-2.87 -2.22,-4.95 0,-2.08 0.74,-3.65 2.22,-4.87 1.48,-1.22 3.39,-1.83 5.73,-1.83 2.34,0 4.31,0.61 5.77,1.83 1.45,1.22 2.18,2.84 2.18,4.87 0,2.03 -0.73,3.73 -2.18,4.95 -1.46,1.22 -3.38,1.83 -5.77,1.83 z m -6.47,4.6 6.47,1.25 6.54,-1.25 v 44.8 h -13.01 z"
       id="path11" />
    <path
       class="cls-2"
       d="m 1153.85,896.41 h -4.67 l 16.75,-38.26 h 13.87 l -21.12,44.33 h -14.8 l -21.12,-44.33 h 14.34 z"
       id="path12" />
    <path
       class="cls-2"
       d="m 1208.08,903.65 c -5.25,0 -9.93,-0.97 -14.06,-2.92 -4.13,-1.95 -7.38,-4.69 -9.74,-8.22 -2.36,-3.53 -3.54,-7.64 -3.54,-12.31 0,-4.67 1.13,-8.67 3.39,-12.16 2.26,-3.48 5.36,-6.19 9.31,-8.14 3.95,-1.95 8.44,-2.92 13.48,-2.92 5.04,0 9.56,1.13 13.25,3.39 3.69,2.26 6.53,5.44 8.53,9.54 2,4.1 3,8.93 3,14.49 h -40.52 v -8.65 h 33.5 l -5.14,3.12 c -0.16,-2.6 -0.77,-4.8 -1.83,-6.62 -1.07,-1.82 -2.49,-3.22 -4.29,-4.21 -1.79,-0.99 -3.93,-1.48 -6.43,-1.48 -2.65,0 -4.95,0.53 -6.9,1.6 -1.95,1.07 -3.46,2.54 -4.52,4.44 -1.07,1.9 -1.6,4.12 -1.6,6.66 0,3.07 0.69,5.69 2.06,7.87 1.38,2.18 3.35,3.84 5.92,4.99 2.57,1.14 5.7,1.71 9.39,1.71 3.32,0 6.69,-0.48 10.09,-1.44 3.4,-0.96 6.43,-2.32 9.08,-4.09 v 8.73 c -2.91,2.08 -6.3,3.7 -10.17,4.87 -3.87,1.17 -7.96,1.75 -12.27,1.75 z"
       id="path13" />
  </g>
  <path
     class="cls-1"
     d="m 592.72753,242.86 c -9.81,-3.49 -16.35,-12.79 -16.35,-23.2 v -0.42 c 0,-41.36 -22.46,-77.48 -55.85,-96.82 -8.31,-4.81 -15.21,-11.71 -20.02,-20.02 -19.35,-33.36 -55.45,-55.81 -96.79,-55.81 h -0.42 c -10.41,0 -19.71,-6.54 -23.2,-16.35 -3.57,-10.02 -4.33,-30.24 -13.65,-30.24 -9.32,0 -10.08,20.23 -13.65,30.24 -3.49,9.81 -12.79,16.35 -23.2,16.35 h -0.42 c -41.34,0 -77.44,22.44 -96.79,55.81 -4.82,8.3 -11.72,15.2 -20.02,20.02 -33.39,19.34 -55.85,55.45 -55.85,96.82 v 0.42 c 0,10.41 -6.54,19.71 -16.35,23.2 -10.02,3.57 -30.24,4.33 -30.24,13.65 0,9.32 20.23,10.08 30.24,13.65 9.81,3.49 16.35,12.79 16.35,23.2 v 0.42 c 0,41.36 22.46,77.48 55.85,96.82 8.31,4.81 15.21,11.71 20.02,20.02 19.35,33.36 55.45,55.81 96.79,55.81 h 0.42 c 10.41,0 19.71,6.54 23.2,16.35 3.57,10.02 4.33,30.24 13.65,30.24 9.32,0 10.08,-20.23 13.65,-30.24 3.49,-9.81 12.79,-16.35 23.2,-16.35 h 0.42 c 41.34,0 77.44,-22.44 96.79,-55.81 4.82,-8.3 11.72,-15.2 20.02,-20.02 33.39,-19.34 55.85,-55.45 55.85,-96.82 v -0.42 c 0,-10.41 6.54,-19.71 16.35,-23.2 10.02,-3.57 30.24,-4.33 30.24,-13.65 0,-9.32 -20.23,-10.08 -30.24,-13.65 z m -7.03,14.89 c 0,4.46 -3.61,8.07 -8.07,8.07 v 0 c -41.86,0 -66.47,33.93 -66.47,75.79 v 26.71 c 0,8.71 -2.55,15.39 -6.45,20.5 -0.1,0.12 -0.19,0.24 -0.29,0.36 -0.08,0.1 -0.15,0.19 -0.23,0.29 -5.52,6.72 -13.73,11.72 -25.93,11.72 h -26.71 c -41.86,0 -75.79,24.61 -75.79,66.47 v 0 c 0,4.46 -3.61,8.07 -8.07,8.07 h -2.49 c -4.46,0 -8.07,-3.61 -8.07,-8.07 v 0 c 0,-41.86 -33.93,-66.47 -75.79,-66.47 h -26.71 c -12.21,0 -20.41,-5 -25.93,-11.72 -0.08,-0.09 -0.15,-0.19 -0.23,-0.29 -0.1,-0.12 -0.19,-0.24 -0.29,-0.36 -3.9,-5.12 -6.45,-11.79 -6.45,-20.5 v -26.71 c 0,-41.86 -24.61,-75.79 -66.47,-75.79 v 0 c -4.46,0 -8.07,-3.61 -8.07,-8.07 v -2.49 c 0,-4.46 3.61,-8.07 8.07,-8.07 v 0 c 41.86,0 66.47,-33.93 66.47,-75.79 v -26.71 c 0,-8.71 2.55,-15.39 6.45,-20.5 0.09,-0.12 0.19,-0.24 0.28,-0.36 0.08,-0.1 0.16,-0.2 0.23,-0.29 5.52,-6.72 13.73,-11.72 25.93,-11.72 h 26.71 c 41.86,0 75.79,-24.61 75.79,-66.47 v 0 c 0,-4.46 3.61,-8.07 8.07,-8.07 h 2.49 c 4.46,0 8.07,3.61 8.07,8.07 v 0 c 0,41.86 33.93,66.47 75.79,66.47 h 26.71 c 12.21,0 20.41,5 25.93,11.72 0.08,0.1 0.15,0.19 0.23,0.29 0.1,0.12 0.19,0.24 0.29,0.36 3.9,5.12 6.45,11.79 6.45,20.5 v 26.71 c 0,41.86 24.61,75.79 66.47,75.79 v 0 c 4.46,0 8.07,3.61 8.07,8.07 v 2.49 z"
     id="path15"
     style="fill-opacity:1;fill:url(#radialGradient16)" />
</svg>
